<svg xmlns="http://www.w3.org/2000/svg" width="186" height="44" viewBox="0 0 49.212499 11.641667" xmlns:v="https://vecta.io/nano"><g image-rendering="optimizeQuality" shape-rendering="geometricPrecision"><path d="M7.0684024125 3.5695771004L5.0478906462 4.6949187946 3.027381526 3.5695771004l1.9438169963-1.278826484zm-5.0129809785 1.84149733v-1.381148795l2.9924692123 1.6369532502 3.0435311492-1.6369532502V5.359911953L5.0734229376 7.04792714zm3.0180015036 3.8364768058l3.0179988578-1.688113083V6.1783899l-3.0179988578 1.68801254L2.055421434 6.1783899v1.5345303973z" fill="#db3e33" fill-rule="nonzero"/><path d="M.3705971218 3.1550041265L5.128572687.407965057 9.886545606 3.1550041265v5.4938744L5.128572687 11.3959149602.3705971218 8.6488785364z" fill="none" stroke="#2a2b3f" stroke-width=".7673154695"/></g><path d="M15.4247671746 2.3005243247V5.764213802h.946927863V1.5697107714h-3.5716950383V5.764213802h.94702576V2.3005243247zM33.353162 4.79186c-.362218.1843-.730915.27964-1.105797.27964-.85797 0-1.39182-.521-1.39182-1.38544 0-.45117.139822-.80072.413078-1.04865.27964-.2542.622808-.38136 1.029505-.38136.32412 0 .63557.0635.927877.19696v-.79444c-.273256-.1144-.6292-.17154-1.061315-.17154-.679952 0-1.226568.20973-1.646028.63558-.413078.42574-.622808.94693-.622808 1.56335 0 .6292.196964 1.15028.590994 1.5507.400413.4004.946928.60376 1.6524.60376.476604 0 .883398-.0826 1.220184-.24783l-.0064-.80072zm-15.507417.97234V4.4106h.699c.457557 0 .826153-.13344 1.112178-.4068s.432126-.61005.432126-1.02322c0-.38765-.139822-.71815-.413078-.9914s-.667287-.41308-1.175705-.41308h-1.607834v4.188h.9533zm.495652-3.48273c.52757 0 .800825.31773.800825.71814 0 .38137-.228777.7055-.807106.7055h-.495655V2.28148h.502037zM22.5872 5.83412c.654622 0 1.194853-.20334 1.614215-.61652.425842-.41308.635572-.93416.635572-1.5507s-.20973-1.13122-.6292-1.5443c-.41946-.41946-.959694-.6292-1.614215-.6292-.64824 0-1.18847.20973-1.620597.6292-.425844.41946-.641956.93416-.641956 1.5443 0 .6292.203446 1.144.610143 1.55707.413078.4068.9597.61014 1.646028.61014zm.01276-3.55903c.38765 0 .705485.13344.940546.40042.241543.26697.362315.59737.362315.9914 0 .4004-.120772.73082-.362315 1.00418-.235162.27325-.552897.4067-.940546.4067-.4004 0-.718148-.13344-.959692-.4004-.23516-.26688-.355933-.60376-.355933-1.01046 0-.39403.120772-.72453.3686-.9914s.559282-.40042.946928-.40042zm5.954938 1.4364c.01267 0 .01905 0 .02543.006v2.04644h.915215v-4.2644h-.133437l-2.02 2.34513-2.027393-2.34513h-.13982v4.2644h.90883V3.7175c.0064 0 .01267 0 .01905-.006l1.169424 1.27743h.13982L28.55501 3.7115zm7.130626065 2.052713802V2.294142575h1.2202847763v-.7308162h-3.3937812697v.7308162h1.2265686304v3.470071227zM38.37794 5.7642V4.4106h.7c.457557 0 .826156-.13344 1.11218-.4068s.432125-.61005.432125-1.02322c0-.38765-.13982-.71815-.413078-.9914S39.54088 1.576 39.032462 1.576h-1.60783v4.188h.9533zm.495654-3.48273c.527566 0 .800822.31773.800822.71814 0 .38137-.228777.7055-.807106.7055h-.495652V2.28148h.502034zm4.1628 3.55265c.654622 0 1.194853-.20334 1.614215-.61652.425842-.41308.635572-.93416.635572-1.5507s-.20973-1.13122-.6292-1.5443c-.41946-.41946-.9597-.6292-1.614215-.6292-.648237 0-1.18847.20973-1.620597.6292-.42584.41946-.641956.93416-.641956 1.5443 0 .6292.20345 1.144.610143 1.55707.413078.4068.959694.61014 1.646028.61014zm.01267-3.55903c.387646 0 .705482.13344.940644.40042.241543.26697.362217.59737.362217.9914 0 .4004-.120772.73082-.362217 1.00418-.235162.27325-.552897.4067-.940644.4067-.400413 0-.718148-.13344-.959694-.4004-.23516-.26688-.35593-.60376-.35593-1.01046 0-.39403.120772-.72453.368596-.9914s.559282-.40042.946928-.40042zm6.1456-.78796h-.139822L46.39835 4.08h-.02543V1.5698h-.940646v4.26442h.13344l2.669247-2.574h.01905v2.504h.940644v-4.2771zm-1.7668-.23516c.311454 0 .546613-.10172.705482-.2987.16525-.20334.2542-.445.273357-.72453h-.432126c-.04448.3305-.228777.55928-.53385.55928-.311455 0-.527466-.20344-.546516-.55928h-.438507c.02543.57833.362215 1.02322.972357 1.02322zM15.3918583 6.8880606003h-.4110831198l-1.849672956 1.792530894v-1.792530894h-.331102225v3.7793320982h.331102225V8.7320503062l1.969648267 1.9353423923h.4681272858l-2.021009183-1.96396237zM17.253004 10.72444c.553794 0 1.016238-.1884 1.375862-.55948.365307-.371.548-.83354.548-1.38733 0-.548-.182703-1.01046-.548-1.38155-.365408-.37678-.822068-.56516-1.375862-.56516-.536644 0-.993402.18838-1.375863.56516-.376777.37678-.565166.83922-.565166 1.38155 0 .56516.171336 1.0333.5195 1.3987s.822066.548 1.421538.548zm-1.592874-1.9467c0-.46245.148497-.85638.4453-1.17032.302577-.31405.685038-.47382 1.147482-.47382s.844904.15987 1.1418.4795c.302577.31395.450974.7022.450974 1.16464s-.148497.8506-.4453 1.17032c-.291208.31404-.67367.474-1.147482.474-.48528 0-.873427-.15418-1.164635-.46244-.285425-.30826-.428138-.7022-.428138-1.1818zm3.91646027-1.8896793997v3.7793320982h.3310995792V8.8176192h2.1865616183v1.8497734975h.3254136834V6.8880606003h-.3254136834v1.632764896h-2.1865616183v-1.632764896zM25.9079 10.11938c-.353938.19976-.71366.30258-1.078968.30258-.50812 0-.90205-.1485-1.1818-.4396-.27974-.297-.422453-.69082-.422453-1.1818 0-.508.15418-.9192.46813-1.22178s.696508-.45675 1.153266-.45675c.325416 0 .633677.0685.91342.20554v-.32542c-.2169-.11987-.530958-.17702-.94194-.17702-.548013 0-1.010454.1884-1.381548.56527-.371092.371-.55948.845-.55948 1.41016 0 .55948.171336 1.02193.50812 1.38155s.810697.53664 1.41017.53664c.3711 0 .833535-.097 1.113274-.27395v-.32542zm1.8668279782.5480126985V7.184854305h1.2331488178v-.2967937046h-2.814552798v.2967937046h1.2446185052v3.4825383936zM29.738683 10.6674V9.3372h.884894c.371094 0 .690824-.1084.947726-.32542.256903-.2227.388144-.52527.388144-.90773 0-.3368-.1142-.6223-.348252-.85638s-.553797-.35393-.970563-.35393h-1.238835v3.77364zm.782074-3.4996c.359624 0 .627994.0914.804913.27974.182705.1827.274055.4053.274055.6622 0 .2626-.08567.48528-.256902.67367s-.422453.27974-.759336.27974h-.844905V7.1677h.782074zm2.78373 2.77456c-.142714.32542-.33.4853-.576633.4853-.1884 0-.388247-.0572-.588002-.17124v.33c.188386.0913.393927.13703.610838.13703.359624 0 .588005-.15987.79923-.61084l1.484368-3.21986H34.6974l-1.181787 2.56912h-.02284l-1.238835-2.56912H31.9l1.444376 2.95727-.04.0913zm4.9143917765.7250326985l-2.021009183-1.96396237 1.8440902476-1.815369727h-.4110831198l-1.8497761434 1.792530894v-1.792530894h-.3310995792v3.7793320982h.3310995792V8.7320503062l1.9696509127 1.9353423923zm3.61230235.9072751345v-1.204626735h-.536643785V6.8876006003h-.3310995792v3.4824404978H38.731200124V6.8876006003h-.3312001208v3.7793320982h3.0829249612v.9077351344zm3.444755451-3.9958833456l-.0057837916 3.08860821h.3197304335V6.8537547257h-.0741971032L42.78679911 9.9480488327h-.022838833V6.8880606003h-.3197330793v3.8021709313h.079883l2.7346724447-3.111447044zm3.5923043916 0h.0171529373l-.00568325 3.08860821H49.19944V6.8537547257h-.074297645l-2.7288860073 3.094294107h-.022838833V6.8880606003h-.3196325376v3.8021709313h.079883z" image-rendering="optimizeQuality" shape-rendering="geometricPrecision" fill="#2a2c40"/></svg>